<?xml version="1.0" encoding="UTF-8"?><svg id="a" xmlns="http://www.w3.org/2000/svg" viewBox="0 0 270.366 113.898"><defs><style>.b{fill:#1d1d1b;}</style></defs><g><path class="b" d="M0,84.9H19.376v5.962H6.244v6.123h10.957v5.882H6.244v10.231H0v-28.198Z"/><path class="b" d="M25.836,99.04c0-8.138,6.606-14.703,14.744-14.703s14.743,6.565,14.743,14.703-6.606,14.743-14.743,14.743-14.744-6.565-14.744-14.743Zm23.002,0c0-4.794-3.626-8.54-8.258-8.54s-8.259,3.746-8.259,8.54,3.626,8.58,8.259,8.58,8.258-3.786,8.258-8.58Z"/><path class="b" d="M63.554,84.9h11.038c6.123,0,10.514,4.028,10.514,9.386,0,3.384-2.075,6.486-5.056,8.299l6.546,10.514h-7.533l-5.458-9.104h-3.767v9.104h-6.284v-28.198Zm10.957,13.817c2.538,0,4.229-1.854,4.229-4.028s-1.691-4.028-4.229-4.028h-4.673v8.057h4.673Z"/><path class="b" d="M98.292,90.862h-7.573v-5.962h21.511v5.962h-7.573v22.236h-6.364v-22.236Z"/><path class="b" d="M128.215,101.819l-10.957-16.919h7.896l6.244,10.474,6.244-10.474h7.896l-10.957,16.919v11.279h-6.365v-11.279Z"/><path class="b" d="M149.056,96.18h15.711v5.237h-15.711v-5.237Z"/><path class="b" d="M173.623,84.9h19.376v5.962h-13.132v6.123h10.957v5.882h-10.957v10.231h-6.244v-28.198Z"/><path class="b" d="M201.774,84.9h6.405v28.198h-6.405v-28.198Z"/><path class="b" d="M215.226,84.9h7.291l7.332,20.726,6.606-20.726h7.291l-10.635,28.198h-7.251l-10.635-28.198Z"/><path class="b" d="M251.191,84.9h18.611v5.721h-12.327v5.196h10.434v5.881h-10.434v5.6h12.891v5.801h-19.175v-28.198Z"/></g><path class="b" d="M155.407,22.469c-3.395,0-6.533,.626-9.37,1.686l8.252-8.262h-5.621l.917-1.017,.153-.162,.019-.024c.01,.005,.014,.01,.024,.01,.067,.029,.129,.053,.196,.072s.129,.033,.196,.048c.014,.005,.029,.01,.048,.01,.067,.014,.134,.019,.201,.024,.014,.005,.029,.005,.043,.005,.067,.005,.138,.01,.21,.01h.048c.086,0,.167-.005,.248-.014,.072-.005,.143-.014,.215-.029,.081-.014,.162-.029,.239-.048,.392-.1,.75-.277,1.055-.511,.062-.048,.119-.096,.177-.148,.115-.105,.215-.215,.31-.334,.1-.119,.181-.253,.253-.392,.043-.081,.081-.167,.11-.248t.005-.01c.029-.067,.048-.134,.067-.201,.005-.014,.01-.024,.01-.038,.005-.01,.01-.014,.01-.024,.01-.033,.014-.067,.024-.1l-1.609-.43-1.313-.339-2.459-.64c-.134,.272-.201,.573-.201,.912,0,.654,.287,1.256,.735,1.714l-.01,.01-.215,.234-1.547,1.662h-3.749v-.062l.134-5.793,4.795,1.308,.057,.014c.096-.244,.229-.473,.396-.678,.506-.626,1.323-1.051,2.23-1.051,.191,0,.382,.019,.568,.053,.062,.01,.124,.024,.186,.038,.067,.019,.134,.038,.201,.062,.172,.053,.339,.124,.492,.21l4.398-5.057,.74,.654-4.365,5.072-.01,.014,.072,.067,.014,.014c.024,.029,.043,.062,.067,.091,.21,.306,.353,.654,.415,1.027v.01c.029,.177,.038,.358,.024,.54-.005,.086-.014,.172-.029,.258-.005,.014-.01,.029-.01,.048-.005,.014-.005,.024-.01,.038l.01,.005,7.278,1.843c2.727,.712,4.885,1.351,6.638,1.351,3.133,0,4.58-2.732,5.86-15.802L172.05,0c-.673,2.426-1.38,3.367-3.233,3.367-2.326,0-19.909-1.753-26.547-2.727l-1.28,.974V15.893h-16.313V.244h-13.883l-22.631,40.291v1.523h21.748v12.698h-7.56v1.815h27.865v-1.815h-5.54v-12.698h7.87v21.165h-11.275v1.91h24.522v-1.91h-11.385v-27.431l7.927-7.932c3.367-2.087,6.905-3.438,10.277-3.438,6.433,0,7.206,4.145,7.206,14.188,0,11.012-.234,17.517-7.039,17.517-4.919,0-6.032-3.066-6.032-5.224,0-.974,.167-1.781,.473-2.66h2.66c.406-1.046,.707-2.56,.707-4.074,0-4.112-2.861-6.27-6.872-6.27-4.986,0-7.311,3.539-7.311,7.445,0,9.871,10.177,12.369,16.609,12.369,14.284,0,23.047-6.977,23.047-18.467,0-8.319-4.585-16.776-20.654-16.776Zm-45.497,17.665h-19.179L109.911,6.342V40.134Zm22.636,0h-7.87v-12.068l7.87,7.598v4.47Zm8.443-17.904l-.826,.893c-.501,.014-1.017,.014-1.557-.01-4.188-.177-5.425-1.256-10.01-1.242-1.519,.005-2.827,.143-3.921,.349-1.227,.224-2.192,.535-2.884,.831l-5.759-5.564h29.322l-2.397,2.607-1.055,1.146-.912,.989Zm1.251,.721l.64-.702,4.336-4.761h3.214l-3.758,3.763c-.807,.721-2.116,1.28-3.801,1.595-.205,.038-.415,.076-.63,.105Z"/></svg>