<?xml version="1.0" encoding="UTF-8"?><svg id="a" xmlns="http://www.w3.org/2000/svg" viewBox="0 0 411.316 411.316"><defs><style>.b{fill:#1d1d1b;}.b,.c{stroke-width:0px;}.c{fill:#fff;}</style></defs><circle class="c" cx="205.658" cy="205.658" r="205.658"/><path class="b" d="M205.658,405.338c-110.077,0-199.632-89.555-199.632-199.631S95.581,6.075,205.658,6.075s199.632,89.555,199.632,199.632-89.555,199.631-199.632,199.631ZM205.658,11.075C98.338,11.075,11.026,98.386,11.026,205.707s87.312,194.631,194.632,194.631,194.632-87.312,194.632-194.631S312.978,11.075,205.658,11.075Z"/><path class="b" d="M205.658,343.175c-75.8,0-137.468-61.668-137.468-137.468s61.668-137.468,137.468-137.468,137.468,61.668,137.468,137.468-61.668,137.468-137.468,137.468ZM205.658,73.239c-73.043,0-132.468,59.425-132.468,132.468s59.425,132.468,132.468,132.468,132.468-59.425,132.468-132.468-59.425-132.468-132.468-132.468Z"/><path class="b" d="M56.825,126.443l7.756-12.926,4.309,2.585-7.756,12.926-4.309-2.585Z"/><path class="b" d="M72.36,86.129l13.234-13.072,4.022,4.07-8.967,8.861,4.131,4.181,7.483-7.392,3.967,4.014-7.483,7.392,6.905,6.989-4.266,4.211-19.025-19.255Z"/><path class="b" d="M101.509,77.135c-4.285-6.494-2.469-15.212,4.025-19.497,6.494-4.285,15.225-2.524,19.51,3.969,4.306,6.528,2.49,15.246-4.004,19.531-6.494,4.285-15.225,2.524-19.531-4.004ZM119.868,65.023c-2.524-3.826-7.392-4.905-11.089-2.466-3.696,2.439-4.619,7.337-2.095,11.163,2.524,3.826,7.414,4.94,11.11,2.5,3.696-2.439,4.598-7.371,2.073-11.197Z"/><path class="b" d="M129.376,44.649l9.856-3.861c5.465-2.14,10.794-.08,12.666,4.704,1.183,3.02.416,6.515-1.612,9.174l9.522,7.098-6.724,2.633-8.058-6.218-3.362,1.318,3.184,8.127-5.611,2.195-9.861-25.171ZM143.991,53.152c2.264-.888,3.126-3.134,2.365-5.075-.758-1.944-2.917-3.007-5.184-2.119l-4.171,1.633,2.816,7.194,4.174-1.633Z"/><path class="b" d="M165.996,38.463l-7.103,1.495-1.177-5.595,20.178-4.248,1.177,5.595-7.103,1.495,4.391,20.857-5.971,1.257-4.391-20.857Z"/><path class="b" d="M197.361,44.712l-10.991-15.901,7.567-.228,6.287,9.861,5.685-10.219,7.567-.228-10.015,16.532.323,10.813-6.101.183-.323-10.813Z"/><path class="b" d="M219.329,39.518l14.928,1.811-.602,4.977-14.931-1.811.605-4.977Z"/><path class="b" d="M249.063,33.356l17.776,5.261-1.617,5.467-12.049-3.564-1.663,5.616,10.052,2.975-1.596,5.396-10.052-2.975-2.779,9.386-5.727-1.694,7.655-25.868Z"/><path class="b" d="M277.862,43.143l5.587,2.53-11.136,24.593-5.587-2.53,11.136-24.593Z"/><path class="b" d="M293.179,50.039l5.849,3.81-4.945,20.457,16.127-13.175,5.849,3.81-23.264,17.065-5.815-3.789,6.199-28.178Z"/><path class="b" d="M324.499,72.195l12.863,12.327-3.789,3.953-8.519-8.164-3.442,3.593,7.212,6.91-3.898,4.065-7.209-6.91-3.709,3.869,8.909,8.538-3.842,4.009-13.252-12.701,18.677-19.489Z"/><path class="b" d="M345.253,111.414l7.949,12.796-4.264,2.649-7.949-12.796,4.264-2.649Z"/><path class="c" d="M230.567,177.586l-5.02,5.46-2.21,2.4-1.91,2.07-1.73,1.87c-1.05.03-2.13.03-3.26-.02-8.77-.37-11.36-2.63-20.96-2.6-3.18.01-5.92.3-8.21.73-2.57.47-4.59,1.12-6.04,1.74l-12.06-11.65h61.4Z"/><path class="c" d="M241.197,177.586l-7.87,7.88c-1.69,1.51-4.43,2.68-7.96,3.34-.43.08-.87.16-1.32.22l1.34-1.47,9.08-9.97h6.73Z"/><path class="c" d="M247.557,165.856c.06.37.08.75.05,1.13-.01.18-.03.36-.06.54-.01.03-.02.06-.02.1-.01.03-.01.05-.02.08l-3.37-.9-2.75-.71-5.15-1.34c.2-.51.48-.99.83-1.42,1.06-1.31,2.77-2.2,4.67-2.2.4,0,.8.04,1.19.11.13.02.26.05.39.08.14.04.28.08.42.13.36.11.71.26,1.03.44l9.21-10.59,1.55,1.37-9.14,10.62-.02.03.15.14.03.03c.05.06.09.13.14.19.44.64.74,1.37.87,2.15v.02Z"/><path class="c" d="M240.247,171.896c-.17-.04-.34-.07-.5-.12l.04-.05c.02.01.03.02.05.02.14.06.27.11.41.15Z"/><path class="c" d="M241.707,172.096c-.12,0-.25,0-.37-.01-.02,0-.05,0-.07-.01.14.01.29.02.44.02Z"/><path class="c" d="M245.487,170.836c-.64.5-1.39.87-2.21,1.07.82-.21,1.57-.58,2.21-1.07Z"/><path class="b" d="M251.617,188.016c-7.11,0-13.68,1.31-19.62,3.53l17.28-17.3h-11.77l1.92-2.13.32-.34.04-.05c.02.01.03.02.05.02.14.06.27.11.41.15s.27.07.41.1c.03.01.06.02.1.02.14.03.28.04.42.05.03.01.06.01.09.01.14.01.29.02.44.02h.1c.18,0,.35-.01.52-.03.15-.01.3-.03.45-.06.17-.03.34-.06.5-.1.82-.21,1.57-.58,2.21-1.07.13-.1.25-.2.37-.31.24-.22.45-.45.65-.7.21-.25.38-.53.53-.82.09-.17.17-.35.23-.52q.01-.01.01-.02c.06-.14.1-.28.14-.42.01-.03.02-.05.02-.08.01-.02.02-.03.02-.05.02-.07.03-.14.05-.21l-3.37-.9-2.75-.71-5.15-1.34c-.28.57-.42,1.2-.42,1.91,0,1.37.6,2.63,1.54,3.59l-.02.02-.45.49-3.24,3.48h-7.85v-.13l.28-12.13,10.04,2.74.12.03c.2-.51.48-.99.83-1.42,1.06-1.31,2.77-2.2,4.67-2.2.4,0,.8.04,1.19.11.13.02.26.05.39.08.14.04.28.08.42.13.36.11.71.26,1.03.44l9.21-10.59,1.55,1.37-9.14,10.62-.02.03.15.14.03.03c.05.06.09.13.14.19.44.64.74,1.37.87,2.15v.02c.06.37.08.75.05,1.13-.01.18-.03.36-.06.54-.01.03-.02.06-.02.1-.01.03-.01.05-.02.08l.02.01,15.24,3.86c5.71,1.49,10.23,2.83,13.9,2.83,6.56,0,9.59-5.72,12.27-33.09l-2.47-.35c-1.41,5.08-2.89,7.05-6.77,7.05-4.87,0-41.69-3.67-55.59-5.71l-2.68,2.04v29.9h-34.16v-32.77h-29.07l-47.39,84.37v3.19h45.54v26.59h-15.83v3.8h58.35v-3.8h-11.6v-26.59h16.48v44.32h-23.61v4h51.35v-4h-23.84v-57.44l16.6-16.61c7.05-4.37,14.46-7.2,21.52-7.2,13.47,0,15.09,8.68,15.09,29.71,0,23.06-.49,36.68-14.74,36.68-10.3,0-12.63-6.42-12.63-10.94,0-2.04.35-3.73.99-5.57h5.57c.85-2.19,1.48-5.36,1.48-8.53,0-8.61-5.99-13.13-14.39-13.13-10.44,0-15.31,7.41-15.31,15.59,0,20.67,21.31,25.9,34.78,25.9,29.91,0,48.26-14.61,48.26-38.67,0-17.42-9.6-35.13-43.25-35.13ZM156.347,225.006h-40.16l40.16-70.76v70.76ZM203.747,225.006h-16.48v-25.27l16.48,15.91v9.36ZM221.427,187.516l-1.73,1.87c-1.05.03-2.13.03-3.26-.02-8.77-.37-11.36-2.63-20.96-2.6-3.18.01-5.92.3-8.21.73-2.57.47-4.59,1.12-6.04,1.74l-12.06-11.65h61.4l-5.02,5.46-2.21,2.4-1.91,2.07ZM224.047,189.026l1.34-1.47,9.08-9.97h6.73l-7.87,7.88c-1.69,1.51-4.43,2.68-7.96,3.34-.43.08-.87.16-1.32.22Z"/><path class="b" d="M49.365,259.506l4.237,10.485-3.495,1.413-4.237-10.486,3.495-1.412Z"/><path class="b" d="M68.474,281.141l2.358,3.964-17.453,10.383-2.358-3.965,17.453-10.382Z"/><path class="b" d="M73.317,296.627l-3.23-4.389,3.455-2.543,9.175,12.467-3.455,2.543-3.23-4.389-12.887,9.483-2.714-3.688,12.887-9.484Z"/><path class="b" d="M88.781,308.935l3.826,4.043-9.559,19.424-3.408-3.601,1.981-3.811-5.48-5.791-3.915,1.769-3.368-3.559,19.921-8.475ZM83.71,321.418l3.594-7.273-7.47,3.178,3.876,4.096Z"/><path class="b" d="M101.329,321.306l3.559,2.889-10.072,12.409,6.824,5.539-2.724,3.355-10.382-8.427,12.796-15.766Z"/><path class="b" d="M115.788,332.455l3.834,2.562-11.279,16.876-3.833-2.562,11.279-16.877Z"/><path class="b" d="M130.122,341.261l4.939,2.566-2.668,21.484-4.399-2.286.624-4.25-7.075-3.676-3.119,2.953-4.347-2.259,16.045-14.533ZM129.42,354.716l1.014-8.05-6.017,5.45,5.003,2.6Z"/><path class="b" d="M145.838,348.914l4.198,1.434,3.988,14.872,4.132-12.099,4.171,1.424-6.559,19.204-4.17-1.424-3.998-14.937-4.15,12.154-4.17-1.424,6.558-19.205Z"/><path class="b" d="M177.352,357.848l13.828,1.864-.573,4.255-9.372-1.264-.589,4.37,7.819,1.054-.566,4.197-7.819-1.054-.984,7.302-4.456-.601,2.713-20.124Z"/><path class="b" d="M196.759,359.935l4.609.17-.748,20.294-4.609-.17.748-20.294Z"/><path class="b" d="M207.792,360.348l4.427-.317,9.478,12.145-.915-12.759,4.397-.315,1.452,20.252-4.397.315-9.511-12.2.92,12.816-4.397.315-1.453-20.252Z"/><path class="b" d="M231.447,358.057l13.111-2.777.854,4.03-8.686,1.84.776,3.661,7.351-1.557.878,4.144-7.352,1.557.836,3.945,9.082-1.924.866,4.087-13.51,2.861-4.208-19.867Z"/><path class="b" d="M258.871,350.908l6.302-2.665c5.395-2.28,11.309-.501,13.736,5.24,2.462,5.821-.438,11.171-5.832,13.452l-6.302,2.665-7.904-18.692ZM271.423,363.023c3.07-1.299,4.733-4.142,3.214-7.733-1.496-3.538-4.683-4.3-7.753-3.001l-2.083.881,4.539,10.734,2.083-.881Z"/><path class="b" d="M279.366,341.531l4.027-2.241,9.87,17.73-4.027,2.241-9.87-17.73Z"/><path class="b" d="M289.14,336.08l3.614-2.572,14.407,5.439-7.416-10.417,3.591-2.556,11.771,16.534-3.591,2.556-14.464-5.47,7.449,10.464-3.591,2.556-11.771-16.534Z"/><path class="b" d="M308.209,321.601l3.436-3.076,13.544,15.124-3.436,3.076-13.544-15.124Z"/><path class="b" d="M316.543,314.132l2.961-3.306,15.255,2.137-9.528-8.532,2.941-3.284,15.124,13.544-2.94,3.284-15.318-2.154,9.571,8.571-2.94,3.284-15.125-13.544Z"/><path class="b" d="M339.905,302.641c-5.259-3.457-6.185-9.861-2.791-15.022.972-1.478,2.664-3.419,4.402-4.532l3.853,2.533c-1.604.75-3.218,2.361-4.205,3.863-2.294,3.489-1.743,7.218,1.37,9.265,3.029,1.991,6.603,1.147,8.864-2.293.431-.654.812-1.393,1.052-2.154l-3.041-1.999-1.879,2.859-3.271-2.15,4.349-6.615,8.771,5.767c-.075,1.963-1.214,5.066-2.632,7.224-3.457,5.258-9.705,6.633-14.842,3.256Z"/><path class="b" d="M355.378,272.23l4.392-10.426,3.476,1.464-4.392,10.426-3.476-1.464Z"/></svg>