<svg id="Gruppe_43" data-name="Gruppe 43" xmlns="http://www.w3.org/2000/svg" width="52.106" height="52.106" viewBox="0 0 52.106 52.106">
  <g id="Gruppe_42" data-name="Gruppe 42" transform="translate(0)">
    <path id="Pfad_135" data-name="Pfad 135" d="M53.915,32.553c6.956,0,7.78.027,10.528.152a14.419,14.419,0,0,1,4.838.9,8.628,8.628,0,0,1,4.945,4.945,14.42,14.42,0,0,1,.9,4.838c.125,2.747.152,3.571.152,10.528s-.027,7.781-.152,10.528a14.42,14.42,0,0,1-.9,4.838,8.627,8.627,0,0,1-4.945,4.944,14.411,14.411,0,0,1-4.838.9c-2.747.126-3.571.152-10.528.152s-7.781-.026-10.528-.152a14.412,14.412,0,0,1-4.838-.9,8.627,8.627,0,0,1-4.944-4.944,14.416,14.416,0,0,1-.9-4.838c-.125-2.747-.152-3.571-.152-10.528s.026-7.78.152-10.528a14.416,14.416,0,0,1,.9-4.838A8.627,8.627,0,0,1,38.55,33.6a14.42,14.42,0,0,1,4.838-.9c2.747-.125,3.571-.152,10.528-.152m0-4.694c-7.076,0-7.963.03-10.742.157a19.126,19.126,0,0,0-6.324,1.211,13.322,13.322,0,0,0-7.62,7.62,19.117,19.117,0,0,0-1.211,6.324c-.127,2.779-.157,3.666-.157,10.741s.03,7.963.157,10.742a19.117,19.117,0,0,0,1.211,6.324,13.322,13.322,0,0,0,7.62,7.62,19.125,19.125,0,0,0,6.324,1.211c2.779.127,3.666.157,10.742.157s7.963-.03,10.742-.157A19.127,19.127,0,0,0,70.981,78.6a13.322,13.322,0,0,0,7.62-7.62,19.119,19.119,0,0,0,1.211-6.324c.127-2.779.157-3.666.157-10.742s-.03-7.963-.157-10.741A19.119,19.119,0,0,0,78.6,36.846a13.322,13.322,0,0,0-7.62-7.62,19.127,19.127,0,0,0-6.324-1.211c-2.779-.127-3.666-.157-10.742-.157" transform="translate(-27.862 -27.859)" fill="#fff"/>
    <path id="Pfad_136" data-name="Pfad 136" d="M152.228,138.846a13.379,13.379,0,1,0,13.379,13.379,13.379,13.379,0,0,0-13.379-13.379m0,22.063a8.684,8.684,0,1,1,8.684-8.684,8.684,8.684,0,0,1-8.684,8.684" transform="translate(-126.174 -126.171)" fill="#fff"/>
    <path id="Pfad_137" data-name="Pfad 137" d="M356.659,109.966a3.126,3.126,0,1,1-3.126-3.126,3.126,3.126,0,0,1,3.126,3.126" transform="translate(-313.572 -97.82)" fill="#fff"/>
  </g>
</svg>
